<svg width="117" height="28" viewBox="0 0 117 28" fill="none" xmlns="http://www.w3.org/2000/svg">
<path d="M11.5435 3.97832C11.816 3.00412 13.1971 3.00412 13.4696 3.97832L14.8979 9.08512C15.0187 9.51709 15.4124 9.81577 15.861 9.81577H20.767C21.6992 9.81577 22.1244 10.9787 21.412 11.58L17.1977 15.137C16.8985 15.3895 16.7742 15.7934 16.8796 16.1705L18.4269 21.7026C18.6922 22.651 17.5714 23.3713 16.8189 22.7362L13.1515 19.6408C12.779 19.3264 12.2341 19.3264 11.8616 19.6408L8.19419 22.7362C7.44167 23.3713 6.32091 22.651 6.58616 21.7026L8.13345 16.1705C8.23891 15.7934 8.11461 15.3895 7.8154 15.137L3.60107 11.58C2.88871 10.9787 3.31388 9.81577 4.24606 9.81577H9.15213C9.60068 9.81577 9.99436 9.51709 10.1152 9.08512L11.5435 3.97832Z" fill="url(#paint0_linear_1_80)"/>
<path d="M34.6666 3.97832C34.9391 3.00412 36.3202 3.00412 36.5927 3.97832L38.021 9.08512C38.1418 9.51709 38.5355 9.81577 38.9841 9.81577H43.8901C44.8223 9.81577 45.2475 10.9787 44.5351 11.58L40.3208 15.137C40.0216 15.3895 39.8973 15.7934 40.0028 16.1705L41.55 21.7026C41.8153 22.651 40.6945 23.3713 39.942 22.7362L36.2746 19.6408C35.9021 19.3264 35.3572 19.3264 34.9847 19.6408L31.3173 22.7362C30.5648 23.3713 29.444 22.651 29.7093 21.7026L31.2566 16.1705C31.362 15.7934 31.2377 15.3895 30.9385 15.137L26.7242 11.58C26.0118 10.9787 26.437 9.81577 27.3692 9.81577H32.2752C32.7238 9.81577 33.1175 9.51709 33.2383 9.08512L34.6666 3.97832Z" fill="url(#paint1_linear_1_80)"/>
<path d="M57.7897 3.97832C58.0622 3.00412 59.4433 3.00412 59.7158 3.97832L61.1441 9.08512C61.2649 9.51709 61.6586 9.81577 62.1071 9.81577H67.0132C67.9454 9.81577 68.3706 10.9787 67.6582 11.58L63.4439 15.137C63.1447 15.3895 63.0204 15.7934 63.1258 16.1705L64.6731 21.7026C64.9384 22.651 63.8176 23.3713 63.0651 22.7362L59.3977 19.6408C59.0252 19.3264 58.4803 19.3264 58.1077 19.6408L54.4404 22.7362C53.6879 23.3713 52.5671 22.651 52.8323 21.7026L54.3796 16.1705C54.4851 15.7934 54.3608 15.3895 54.0616 15.137L49.8473 11.58C49.1349 10.9787 49.5601 9.81577 50.4922 9.81577H55.3983C55.8469 9.81577 56.2405 9.51709 56.3614 9.08512L57.7897 3.97832Z" fill="url(#paint2_linear_1_80)"/>
<path d="M80.9128 3.97832C81.1852 3.00412 82.5664 3.00412 82.8389 3.97832L84.2672 9.08512C84.388 9.51709 84.7817 9.81577 85.2302 9.81577H90.1363C91.0685 9.81577 91.4936 10.9787 90.7813 11.58L86.567 15.137C86.2677 15.3895 86.1434 15.7934 86.2489 16.1705L87.7962 21.7026C88.0614 22.651 86.9407 23.3713 86.1882 22.7362L82.5208 19.6408C82.1483 19.3264 81.6033 19.3264 81.2308 19.6408L77.5635 22.7362C76.8109 23.3713 75.6902 22.651 75.9554 21.7026L77.5027 16.1705C77.6082 15.7934 77.4839 15.3895 77.1847 15.137L72.9703 11.58C72.258 10.9787 72.6831 9.81577 73.6153 9.81577H78.5214C78.9699 9.81577 79.3636 9.51709 79.4844 9.08512L80.9128 3.97832Z" fill="url(#paint3_linear_1_80)"/>
<path d="M104.036 3.97832C104.308 3.00412 105.689 3.00412 105.962 3.97832L107.39 9.08512C107.511 9.51709 107.905 9.81577 108.353 9.81577H113.259C114.192 9.81577 114.617 10.9787 113.904 11.58L109.69 15.137C109.391 15.3895 109.267 15.7934 109.372 16.1705L110.919 21.7026C111.185 22.651 110.064 23.3713 109.311 22.7362L105.644 19.6408C105.271 19.3264 104.726 19.3264 104.354 19.6408L100.687 22.7362C99.934 23.3713 98.8133 22.651 99.0785 21.7026L100.626 16.1705C100.731 15.7934 100.607 15.3895 100.308 15.137L96.0934 11.58C95.381 10.9787 95.8062 9.81577 96.7384 9.81577H101.644C102.093 9.81577 102.487 9.51709 102.608 9.08512L104.036 3.97832Z" fill="url(#paint4_linear_1_80)"/>
<defs>
<linearGradient id="paint0_linear_1_80" x1="12.4936" y1="0.535095" x2="12.4936" y2="42.6192" gradientUnits="userSpaceOnUse">
<stop stop-color="#FFE998"/>
<stop offset="1" stop-color="#57370D"/>
</linearGradient>
<linearGradient id="paint1_linear_1_80" x1="35.6167" y1="0.535095" x2="35.6167" y2="42.6192" gradientUnits="userSpaceOnUse">
<stop stop-color="#FFE998"/>
<stop offset="1" stop-color="#57370D"/>
</linearGradient>
<linearGradient id="paint2_linear_1_80" x1="58.7398" y1="0.535095" x2="58.7398" y2="42.6192" gradientUnits="userSpaceOnUse">
<stop stop-color="#FFE998"/>
<stop offset="1" stop-color="#57370D"/>
</linearGradient>
<linearGradient id="paint3_linear_1_80" x1="81.8629" y1="0.535095" x2="81.8629" y2="42.6192" gradientUnits="userSpaceOnUse">
<stop stop-color="#FFE998"/>
<stop offset="1" stop-color="#57370D"/>
</linearGradient>
<linearGradient id="paint4_linear_1_80" x1="104.986" y1="0.535095" x2="104.986" y2="42.6192" gradientUnits="userSpaceOnUse">
<stop stop-color="#FFE998"/>
<stop offset="1" stop-color="#57370D"/>
</linearGradient>
</defs>
</svg>
